<svg width="217" height="291" viewBox="0 0 217 291" xmlns="http://www.w3.org/2000/svg"><title>body</title><style>#hand {animation: wave 2s ease-in-out infinite;transform-origin: 30% 100%;}@keyframes wave {0%,100% {transform:rotate(-4deg);}50% {transform:rotate(20deg)}}</style><g transform="translate(-13 -14)" fill="none" fill-rule="evenodd"><ellipse fill="#000" cx="137" cy="278" rx="93" ry="27"/><g transform="translate(85 102)" fill="#9EF08A"><path d="M53 3c-11 2 47-26 47 64s1 111 1 111H.995V68.959S.538-15.16 53 3z" stroke="#000" stroke-width="2" stroke-linecap="round"/><ellipse cx="51" cy="177" rx="49" ry="7"/></g><g transform="translate(106 87)"><circle stroke="#000" stroke-linecap="round" fill="#FFF" cx="12" cy="12" r="12"/><circle fill="#000" cx="9" cy="11" r="3"/></g><g transform="matrix(-1 0 0 1 170 87)"><circle stroke="#000" stroke-linecap="round" fill="#FFF" cx="12" cy="12" r="12"/><circle fill="#000" cx="13" cy="15" r="3"/></g><g transform="translate(124 84)"><circle stroke="#000" stroke-linecap="round" fill="#FFF" cx="14" cy="14" r="14"/><circle fill="#000" cx="10" cy="13" r="3"/></g><g transform="translate(113 107)"><circle stroke="#000" stroke-linecap="round" fill="#FFF" cx="14" cy="14" r="14"/><circle fill="#000" cx="14" cy="18" r="3"/></g><g transform="translate(135 107)"><circle stroke="#000" stroke-linecap="round" fill="#FFF" cx="14" cy="14" r="14"/><circle fill="#000" cx="14" cy="18" r="3"/></g><g stroke="#000"><path d="M135.5 196c15.74 0 28.5-13.655 28.5-30.5 0-6.787-1.136-8.261-2-16.5-12.136.239-42.54-.674-55 1-1.522 9.694 0 9.133 0 15.5 0 16.845 12.76 30.5 28.5 30.5z" stroke-width="2" stroke-linecap="round" fill="#FFF"/><path d="M133.5 184c15.74 0 28.5-13.655 28.5-30.5 0-6.787-57-6.367-57 0 0 16.845 12.76 30.5 28.5 30.5z" stroke-linecap="round"/><path d="M155 163l9 5M147 167l11 16M138 171l10 22M128 174l2 21M118 175l-2 13" stroke-linecap="square"/></g><g stroke="#000" stroke-linecap="round"><path d="M149.729 275.182s21.137-15.563 23.369-47.485c2.232-31.922-15.396-52.201-15.396-52.201s12.2 11.88 9.41 51.782c-2.79 39.903-17.383 47.904-17.383 47.904z" stroke-width="3" stroke-linejoin="round" fill="#000"/><path d="M181 173s74 31-1 74c-.65-.732 3 11-8 11-10 0-6-10-6-10s-9 1-9-6c0-11 15-5 15-5s63-27 4-53" stroke-width="2" fill="#9EF08A"/></g><g stroke="#000" stroke-linecap="round"><path d="M106.718 186.116s-14.918 21.597-6.636 52.506c8.282 30.91 31.552 44.345 31.552 44.345s-15.404-7.26-25.757-45.898c-10.352-38.637.841-50.953.841-50.953z" stroke-width="3" stroke-linejoin="round" fill="#000"/><path d="M89.595 173s-74 31 1 74c.65-.732-3 11 8 11 10 0 6-10 6-10s9 1 9-6c0-11-15-5-15-5s-63-27-4-53" stroke-width="2" fill="#9EF08A"/></g><g><path d="M170 142s-8 24-43 32c-23.797 4.958-65-10-88-68 0 0 5-4 11-4 13 10 22 56 68 40h52z" fill="#9EF08A"/><path d="M107 142s-25 18-56-40M170 142s-7 24-42 32c-23.797 4.958-67-10-90-68" stroke="#000" stroke-width="2" stroke-linecap="round"/><g id="hand"><path fill="#9EF08A" d="M38.294 106.775l12.37-4.997-3.803-17.622-4.733-4.313-10.082 6.66 2.347 14.815z"/><path d="M38.294 106.775s-6.082-.05-8.552-9.578c-.026-.066-.055-.128-.082-.192-1.457-2.806-.626-3.95-6.19-7.12-5.565-3.168-8.166-6.806-8.478-8.781-.313-1.975 1.868-7.383 3.843-7.696 1.975-.313 14.042 11.95 14.042 11.95" stroke="#000" stroke-width="2" stroke-linecap="round" stroke-linejoin="round" fill="#9EF08A"/><path d="M31.371 88.634s2.338-4.42 3.325-4.576c0 0-9.055-18.815.04-25.318 3.794-1.614 8.009 5.819 8.009 5.819s-3.061 12.634 1.672 16.947" stroke="#000" stroke-width="2" stroke-linecap="round" stroke-linejoin="round" fill="#9EF08A"/><path d="M26.665 24.996l8.374-3.142 3.193-1.675 3.455 5.39s8.083 5.13 10.994 10.205c2.91 5.075.053 9.056.053 9.056s10.468-3.928 19.628-4.976 16.593 4.76 16.593 4.76L75.662 56.29 42.32 57.812l-12.406-6.331-1.887-20.309-1.362-6.176z" fill="#FFF"/><path d="M82.728 56.026s1.413-3.873 5.6-5.444c4.187-1.571-18.95-11.042-32.715-4.444M52.155 21.642s3.088-.681 5.6-5.445c2.511-4.763 2.096 18.32-7.114 29.418" stroke="#000" stroke-width="2" stroke-linecap="round" fill="#FFF"/><path d="M41.687 25.57l6.908-8.324s6.764 1.716.475 24.182" stroke="#000" stroke-width="2" stroke-linecap="round" stroke-linejoin="round" fill="#FFF"/><path d="M86.653 47.389l2.302-2.775s-14.553-14.6-43.705 4.456c0 0 .783-17.01-6.914-29.886l-3.297 2.67" stroke="#000" stroke-width="2" stroke-linecap="round" stroke-linejoin="round"/><path d="M23.89 22.693s1.204-1.884 7.485-4.24c2.093-.786 7.591 13.869 7.591 13.869" stroke="#000" stroke-width="2" stroke-linecap="round" fill="#FFF"/><path d="M37.503 46.245s4.238-11.62-17.382-25.959c0 0 3.3 16.435-3.5 42.87-.104.994 11.884 11.303 10.053 19.155 3.455 5.39 10.208 8.111 10.208 8.111s18.737-6.074 36.693 4.862c0 0 5.283-21.566 14.493-32.664 0 0-15.601-23.76-42.346-8.472-6.176 1.361-8.219-7.903-8.219-7.903z" stroke="#000" stroke-width="2" stroke-linecap="round" fill="#319AD3"/><path d="M69.715 81.808l.7.227c-.659 2.028-1.469 3.396-2.43 4.105-.961.709-1.948.9-2.959.57-.817-.265-1.503-.821-2.059-1.668-.556-.848-.698-2.703-.428-5.565l.755-8.012L53.27 82.593 49.596 81.4l14.089-15.041c.305-2.44.326-4.313.062-5.619-.263-1.305-.856-2.108-1.776-2.407-.739-.24-1.47-.172-2.194.202-.724.375-1.316 1.14-1.778 2.295l-.7-.227c.652-1.874 1.524-3.257 2.617-4.15 1.093-.894 2.186-1.17 3.28-.829.7.228 1.269.725 1.707 1.492.44.766.667 1.919.683 3.456.017 1.537-.193 4.632-.63 9.285l-.602 6.55c-.264 2.709-.229 4.586.105 5.63.335 1.046.934 1.716 1.798 2.01 1.452.472 2.605-.274 3.458-2.238z" fill="#041722"/><path d="M25.366 85.19c.68 3.088 7.787 6.851 10.312 7.117 2.525.265 9.94-37.165 10.149-39.154-2.984-.313-6.858-1.726-8.22-7.902-1.988-.21-12.922 36.85-12.241 39.939z" stroke="#000" stroke-width="2" stroke-linecap="round" stroke-linejoin="round" fill="#73BDE5"/><path d="M41.825 97.103s-4.215-7.432 1.086-12.321l2.493-3.433s-2.552-9.72 8.47-10.453c4.938-.782 4.576 3.325 6.19 7.12-5.458 3.9-10.24 5.67-4.88 13.934 1.456 2.807-4.52 9.828-4.52 9.828" stroke="#000" stroke-width="2" stroke-linecap="round" stroke-linejoin="round" fill="#9EF08A"/></g></g></g></svg>
