<?xml version="1.0"?><svg width="378.08456" height="321.31619" xmlns="http://www.w3.org/2000/svg">
 <title>thought bubble of lisp</title>

 <metadata id="metadata1906">image/svg+xml</metadata>
 <g>
  <title>Layer 1</title>
  <g id="layer1">
   <path fill="#ffffff" stroke="#000000" stroke-width="6" id="path2393" d="m8.130951,316.098206c-2.820801,-3.002563 -2.765137,-6.78186 0.140137,-9.51123c3.002594,-2.820801 6.781891,-2.765137 9.51123,0.140137c2.820801,3.002625 2.765137,6.781921 -0.140137,9.51123c-3.002594,2.820801 -6.781891,2.765137 -9.51123,-0.140137zm20.588257,-12.250916c-7.534363,-4.088074 -7.41214,-15.978882 0.204712,-19.917664c5.741241,-2.968933 12.713257,-0.969177 15.515778,4.450317c5.334229,10.315186 -5.524872,20.999451 -15.72049,15.467346zm29.237427,-18.682617c-9.870087,-5.276184 -13.804077,-17.301086 -8.751984,-26.752014c5.276184,-9.870056 17.301086,-13.804077 26.751984,-8.751953c9.870087,5.276184 13.804077,17.301086 8.751984,26.751953c-5.276184,9.870117 -17.301086,13.804077 -26.751984,8.752014zm149.113007,-18.296631c-12.881287,-2.794556 -21.1073,-6.207947 -30.958069,-12.84613l-5.345032,-3.601929l-9.154968,4.518372c-5.035217,2.485107 -12.304932,5.175659 -16.154907,5.979004c-36.022888,7.516479 -71.298615,-14.34082 -80.49765,-49.87735c-1.252045,-4.8367 -2.272034,-7.012939 -3.173676,-6.771454c-0.730804,0.19574 -4.928711,0.588898 -9.328705,0.873657c-14.570068,0.943024 -26.442657,-3.746613 -36.693909,-14.493958c-6.10498,-6.400482 -8.756683,-10.940155 -11.19577,-19.167084c-3.281586,-11.068665 -1.266998,-26.629303 4.716278,-36.428558c3.787811,-6.203522 12.298492,-14.136017 18.509918,-17.252411l5.75531,-2.887512l1.24942,-6.5c4.727631,-24.595001 27.012909,-43 52.065521,-43l5.808319,0l0.635406,-6.079102c2.489624,-23.819641 20.483032,-45.605225 44.649536,-54.059601c5.522461,-1.932007 8.530151,-2.273987 20,-2.273987c11.469788,0 14.477478,0.34198 20,2.273987c18.258179,6.387421 32.792725,19.81015 40.128479,37.058777c1.57196,3.696045 3.362305,6.490295 4.084961,6.375397c0.707581,-0.112488 3.986511,-1.184418 7.28656,-2.38208c8.168884,-2.964722 22.664856,-3.664917 31.733826,-1.532806c17.519836,4.118927 33.122437,16.390839 40.486511,31.843903c2.306091,4.839111 3.120361,5.734039 4.779663,5.252777c4.464478,-1.294922 18.373474,-1.630157 24,-0.57843c9.649719,1.803711 19.761963,7.200928 27.514404,14.685303c22.324646,21.552582 22.871948,55.190674 1.262268,77.574463c-11.449646,11.859711 -25.828979,17.479889 -42.410828,16.576233l-8.634094,-0.470551l-1.200439,7.441162c-6.686157,41.44754 -42.122437,71.471771 -84.031311,71.197662c-5.225037,-0.03418 -12.374207,-0.685669 -15.887024,-1.447754z"/>
  </g>
  <text transform="rotate(13.3346, 269.543, 179.184)" xml:space="preserve" text-anchor="middle" font-family="Arial" font-size="24" id="svg_2" y="186.683807" x="268.542297" stroke-width="0" stroke="#000000" fill="#000000"/>
 </g>
 <g>
  <title>Layer 2</title>
  <text xml:space="preserve" text-anchor="middle" font-family="Arial" font-size="82" id="svg_5" y="167.683807" x="180.542297" stroke-width="0" stroke="#000000" fill="#000000">()</text>
 </g>
</svg>